<?xml version="1.0" encoding="utf-8"?>
<!-- Generator: Adobe Illustrator 24.0.0, SVG Export Plug-In . SVG Version: 6.00 Build 0)  -->
<svg version="1.1" xmlns="http://www.w3.org/2000/svg" xmlns:xlink="http://www.w3.org/1999/xlink" x="0px" y="0px"
	 viewBox="0 0 511 511" style="enable-background:new 0 0 511 511;" xml:space="preserve">
<style type="text/css">
	.st0{opacity:0.497;fill:url(#Path_1628_1_);enable-background:new    ;}
	.st1{clip-path:url(#SVGID_2_);}
	.st2{fill:#0E106A;}
</style>
<g id="Layer_2">
	<g id="Group_1862" transform="translate(741.808 2919.427) rotate(180)">
		
			<linearGradient id="Path_1628_1_" gradientUnits="userSpaceOnUse" x1="1178.3516" y1="2274.7512" x2="1171.8871" y2="2266.0278" gradientTransform="matrix(-48 0 0 48 57223.5898 -106413.0703)">
			<stop  offset="0" style="stop-color:#FFFFFF"/>
			<stop  offset="1" style="stop-color:#FFA600"/>
		</linearGradient>
		<path id="Path_1628" class="st0" d="M236.1,2620.5l430.6,295l53.5-484.1L236.1,2620.5z"/>
		<g id="Group_1782" transform="translate(184.807 279.427)">
			<g>
				<defs>
					<polygon id="SVGID_1_" points="51.3,2341 481.9,2636 535.4,2151.9 					"/>
				</defs>
				<clipPath id="SVGID_2_">
					<use xlink:href="#SVGID_1_"  style="overflow:visible;"/>
				</clipPath>
				<g id="Group_1781" transform="translate(0 0)" class="st1">
					
						<image style="overflow:visible;enable-background:new    ;" width="258" height="431" id="Rectangle_1871" xlink:href="2D793547.png"  transform="matrix(1.8038 0 0 1.8038 157.618 2005.2321)">
					</image>
				</g>
			</g>
		</g>
	</g>
</g>
<g id="Layer_1">
	<path class="st2" d="M234.6,153.5c-20.1,0-36.5,16.4-36.5,36.5c0,20.1,16.4,36.5,36.5,36.5c20.1,0,36.5-16.4,36.5-36.5
		C271.1,169.9,254.7,153.5,234.6,153.5z M234.6,216.6c-14.7,0-26.6-11.9-26.6-26.6c0-14.7,11.9-26.6,26.6-26.6
		c14.7,0,26.6,11.9,26.6,26.6C261.2,204.7,249.3,216.6,234.6,216.6z"/>
	<path class="st2" d="M234.6,173.3c-9.2,0-16.8,7.5-16.8,16.8c0,9.2,7.5,16.8,16.8,16.8c9.2,0,16.8-7.5,16.8-16.8
		C251.4,180.8,243.8,173.3,234.6,173.3z M234.6,196.9c-3.8,0-6.9-3.1-6.9-6.9c0-3.8,3.1-6.9,6.9-6.9c3.8,0,6.9,3.1,6.9,6.9
		C241.5,193.8,238.4,196.9,234.6,196.9z"/>
	<path class="st2" d="M362.2,190c0-20.1-16.4-36.5-36.5-36.5c-20.1,0-36.5,16.4-36.5,36.5c0,20.1,16.4,36.5,36.5,36.5
		C345.9,226.5,362.2,210.1,362.2,190z M325.8,216.6c-14.7,0-26.6-11.9-26.6-26.6c0-14.7,11.9-26.6,26.6-26.6
		c14.7,0,26.6,11.9,26.6,26.6C352.4,204.7,340.5,216.6,325.8,216.6z"/>
	<path class="st2" d="M325.8,173.3c-9.2,0-16.8,7.5-16.8,16.8c0,9.2,7.5,16.8,16.8,16.8s16.8-7.5,16.8-16.8
		C342.5,180.8,335,173.3,325.8,173.3z M325.8,196.9c-3.8,0-6.9-3.1-6.9-6.9c0-3.8,3.1-6.9,6.9-6.9c3.8,0,6.9,3.1,6.9,6.9
		C332.7,193.8,329.6,196.9,325.8,196.9z"/>
	<path class="st2" d="M405.2,161h-0.5v-6.9c0-68.7-55.9-124.6-124.6-124.6c-68.7,0-124.6,55.9-124.6,124.6v6.9h-0.5
		c-11.7,0-21.2,9.5-21.2,21.2v48.4c0,11.7,9.5,21.2,21.2,21.2h6.3c4.2,0,8-1.2,11.3-3.3v0c0,29.7,24.2,53.9,53.9,53.9h14.3v16.7
		h-28.3c-20.1,0-36.4,16.4-36.4,36.4v1c0,2.7,2.2,4.9,4.9,4.9h152c2.7,0,4.9-2.2,4.9-4.9s-2.2-4.9-4.9-4.9H186.3
		c1.9-12.8,13-22.7,26.3-22.7h134.1c13.3,0,24.4,9.9,26.3,22.7h-23.5c-2.7,0-4.9,2.2-4.9,4.9s2.2,4.9,4.9,4.9h28.7
		c2.7,0,4.9-2.2,4.9-4.9v-1c0-20.1-16.4-36.4-36.4-36.4h-28.3v-16.7h15.3c11.9,0,23.5-4,32.9-11.2c2.1,0.8,4.4,1.3,6.9,1.3h4.6
		c8.7,0,16-5.9,18.1-13.9c7.8-0.8,14-7.5,14-15.5v-11.9c9.3-2.2,16.2-10.6,16.2-20.6v-48.4C426.4,170.5,416.9,161,405.2,161z
		 M172.8,230.6c0,6.2-5.1,11.3-11.3,11.3h-6.3c-6.2,0-11.3-5.1-11.3-11.3v-48.4c0-6.2,5.1-11.3,11.3-11.3h6.3
		c6.2,0,11.3,5.1,11.3,11.3V230.6z M182.6,226.3c7.2,2.8,13.6,7.4,18.5,13.4c6.4,7.9,9.8,17.5,9.8,27.7v22.2
		c-16.5-6.4-28.3-22.4-28.3-41.1V226.3 M308.6,319.1h-57.8v-16.7h57.8V319.1z M317.6,292.5h-4.2v0.1h-64.3v-0.1h-6.4V265
		c0-5.8,3.6-10.8,8.7-12.9c0.1-0.1,0.2-0.1,0.4-0.2c0.4-0.2,0.8-0.4,1.2-0.5c0,0,0,0,0,0c0.3-0.1,0.6-0.2,0.9-0.3
		c1-0.2,1.8-0.3,2.7-0.2h48.6c0.1,0,0.2,0,0.3,0c0.5,0,1,0.1,1.4,0.2c0.3,0.1,0.6,0.1,0.9,0.3c0.5,0.1,1,0.3,1.4,0.6
		c0.2,0.1,0.5,0.3,0.7,0.4c0.1,0,0.1,0.1,0.2,0.1c4.5,2.3,7.7,7,7.7,12.4V292.5z M182.6,215.9V165c0-24.3,19.8-44,44-44h18.7
		c2.7,0,4.9-2.2,4.9-4.9s-2.2-4.9-4.9-4.9h-18.7c-29.5,0-53.5,23.8-53.9,53.2c-2.2-1.4-4.7-2.4-7.3-2.9v-7.3
		c0-63.3,51.5-114.7,114.7-114.7c63.3,0,114.7,51.5,114.7,114.7v7.3c-2.6,0.5-5.1,1.5-7.3,2.9c-0.4-29.4-24.4-53.2-53.9-53.2h-71.9
		c-2.7,0-4.9,2.2-4.9,4.9s2.2,4.9,4.9,4.9h71.9c24.3,0,44,19.7,44,44l0,50.8c-10.2,3.1-19.4,9.3-26.2,17.7c-7.7,9.5-12,21.6-12,33.9
		v24.7c-1.9,0.3-3.9,0.4-5.9,0.4h-6.2V265c0-13.1-10.6-23.7-23.7-23.7h-47.2c-13.1,0-23.7,10.6-23.7,23.7v27.5h-6.2
		c-2,0-4-0.1-5.9-0.4v-24.7c0-12.3-4.3-24.3-12-33.9C202,225.2,192.8,219,182.6,215.9 M358.5,284.9c-2.8,1.9-5.8,3.5-9,4.7v-22.2
		c0-10.2,3.4-19.8,9.8-27.7c4.9-6,11.3-10.7,18.5-13.4v4.3c0,0,0,0.1,0,0.1v17.8c0,2.2-0.2,4.4-0.5,6.5h-3.8
		c-10.3,0-18.7,8.4-18.7,18.7C354.8,277.9,356.2,281.8,358.5,284.9z M378.1,282.6h-4.6c-4.9,0-8.9-4-8.9-8.9c0-4.9,4-8.9,8.9-8.9
		h4.6c4.9,0,8.9,4,8.9,8.9C387,278.6,383,282.6,378.1,282.6z M400.3,263.1c0,2.6-1.8,4.8-4.2,5.5c-1.4-4.9-4.8-9-9.2-11.4
		c0.5-2.9,0.7-5.8,0.7-8.7v0c3.3,2.1,7.1,3.3,11.3,3.3h1.4V263.1z M416.5,230.6c0,6.2-5.1,11.3-11.3,11.3h-6.3
		c-6.2,0-11.3-5.1-11.3-11.3v-48.4c0-6.2,5.1-11.3,11.3-11.3h6.3c6.2,0,11.3,5.1,11.3,11.3V230.6z"/>
</g>
</svg>
