<?xml version="1.0" encoding="utf-8"?>
<!-- Generator: Adobe Illustrator 24.0.0, SVG Export Plug-In . SVG Version: 6.00 Build 0)  -->
<svg version="1.1" xmlns="http://www.w3.org/2000/svg" xmlns:xlink="http://www.w3.org/1999/xlink" x="0px" y="0px"
	 viewBox="0 0 480 480" style="enable-background:new 0 0 480 480;" xml:space="preserve">
<style type="text/css">
	.st0{opacity:0.497;fill:url(#Path_1628_1_);enable-background:new    ;}
	.st1{clip-path:url(#SVGID_2_);}
	.st2{fill:#0E106A;}
</style>
<g id="Layer_2">
	<g id="Group_1862" transform="translate(741.808 2919.427) rotate(180)">
		
			<linearGradient id="Path_1628_1_" gradientUnits="userSpaceOnUse" x1="1193.6628" y1="2289.7" x2="1187.7644" y2="2281.7402" gradientTransform="matrix(-48 0 0 48 57958.5898 -107118.0703)">
			<stop  offset="0" style="stop-color:#FFFFFF"/>
			<stop  offset="1" style="stop-color:#FFA600"/>
		</linearGradient>
		<path id="Path_1628" class="st0" d="M273.5,2646.5l392.9,269.1l48.8-441.7L273.5,2646.5z"/>
		<g id="Group_1782" transform="translate(184.807 279.427)">
			<g>
				<defs>
					<polygon id="SVGID_1_" points="88.7,2367.1 481.6,2636.2 530.4,2194.6 					"/>
				</defs>
				<clipPath id="SVGID_2_">
					<use xlink:href="#SVGID_1_"  style="overflow:visible;"/>
				</clipPath>
				<g id="Group_1781" transform="translate(0 0)" class="st1">
					
						<image style="overflow:visible;enable-background:new    ;" width="258" height="431" id="Rectangle_1871" xlink:href="67744231.png"  transform="matrix(1.6459 0 0 1.6459 185.7207 2060.7053)">
					</image>
				</g>
			</g>
		</g>
	</g>
</g>
<g id="Layer_1">
	<path class="st2" d="M259.8,66.7c-77.8,0-140.9,63.1-140.9,140.9S182,348.5,259.8,348.5c4.2,0,8.5-0.2,12.7-0.6
		c3.9-0.4,7.8-0.9,11.6-1.6l1.5-0.3c71.6-13.4,121.2-79,114.5-151.5C393.4,122.2,332.6,66.7,259.8,66.7z M248.5,338.7h-0.3
		c-3.7-0.3-7.3-0.8-10.9-1.4c-0.2,0-0.4-0.1-0.6-0.1c-3.5-0.6-7-1.4-10.4-2.3l-0.8-0.2c-3.4-0.9-6.7-2-10-3.1
		c-0.3-0.1-0.7-0.2-1-0.4c-3.2-1.2-6.4-2.5-9.5-3.9c-0.4-0.2-0.8-0.3-1.2-0.5c-3-1.4-6-3-9-4.7c-0.4-0.2-0.8-0.5-1.2-0.7
		c-2.9-1.7-5.7-3.5-8.5-5.4c-0.4-0.3-0.8-0.6-1.3-0.9c-2.7-1.9-5.4-4-7.9-6.1l-0.7-0.6v-39.6c0-28.5,23.1-51.6,51.7-51.7h65.8
		c28.5,0,51.6,23.1,51.7,51.7v39.6l-0.6,0.5c-2.6,2.2-5.3,4.3-8.1,6.2c-0.4,0.3-0.7,0.5-1.1,0.8c-2.8,1.9-5.7,3.8-8.6,5.5
		c-0.4,0.2-0.7,0.4-1.1,0.6c-3,1.7-6,3.3-9.1,4.7c-0.4,0.2-0.7,0.3-1.1,0.5c-3.1,1.4-6.3,2.8-9.5,4c-0.3,0.1-0.6,0.2-0.9,0.3
		c-3.3,1.2-6.6,2.2-10,3.2l-0.8,0.2c-3.4,0.9-6.9,1.7-10.4,2.3c-0.2,0-0.4,0.1-0.6,0.1c-3.6,0.6-7.2,1.1-10.9,1.4h-0.3
		c-3.8,0.3-7.5,0.5-11.3,0.5S252.3,339,248.5,338.7z M353.8,299.6v-30.9c0-33.7-27.4-61-61.1-61.1H227c-33.7,0-61,27.4-61.1,61.1
		v30.9c-50.6-51.6-50-134.4,1.3-185.4c51.3-50.9,134.1-50.9,185.4,0C403.8,165.2,404.4,248,353.8,299.6L353.8,299.6z"/>
	<path class="st2" d="M259.8,104.3c-25.9,0-47,21-47,47s21,47,47,47c25.9,0,47-21,47-47C306.8,125.3,285.8,104.3,259.8,104.3z
		 M259.8,188.8c-20.8,0-37.6-16.8-37.6-37.6s16.8-37.6,37.6-37.6c20.8,0,37.6,16.8,37.6,37.6C297.4,172,280.6,188.8,259.8,188.8z"/>
</g>
</svg>
